<svg width="40" height="41" viewBox="0 0 40 41" fill="none" xmlns="http://www.w3.org/2000/svg">
<path d="M36.1391 24.3493C38.2128 15.5672 32.7746 6.76678 23.9925 4.69307C15.2103 2.61936 6.40992 8.05761 4.33621 16.8397C2.2625 25.6219 7.70075 34.4223 16.4829 36.496C25.265 38.5697 34.0654 33.1315 36.1391 24.3493Z" fill="#C2C9DF"/>
<path d="M32.6802 27.906C31.6503 26.5143 25.1647 24.4545 24.8585 24.2318C24.5801 24.0091 23.6616 22.7843 23.6616 22.7843H23.6059V21.4482C23.9956 20.9472 24.3018 20.4462 24.4966 20.0565C24.6358 19.7781 24.7471 19.2214 24.8306 18.4977C25.8884 17.9967 26.0276 16.2987 26.0832 15.3245C26.1111 14.8513 25.8884 14.8234 25.6379 14.9069C25.6379 14.8791 25.6657 14.8791 25.6657 14.8513C25.9162 14.4616 26.0832 14.044 26.1946 13.5987C27.0296 11.01 25.8049 9.4512 25.1647 8.86666C25.0533 8.75532 24.9698 8.64397 24.8306 8.56047C24.7471 8.42129 24.6636 8.28211 24.5523 8.17077C24.0234 7.66974 23.244 7.6419 22.5481 7.58623C21.8244 7.5584 21.045 7.44705 20.5997 6.89035C20.711 7.05736 20.8223 7.22437 20.9337 7.39138C19.9316 7.11303 19.0409 6.38931 18.5955 5.44291C18.5677 5.63776 18.5677 5.8326 18.5399 6.02745C18.2893 5.80477 18.0945 5.49858 18.0388 5.13672C16.5079 6.05529 15.5893 7.78108 15.5893 9.50687C15.1161 9.9244 14.7542 10.4533 14.5316 11.01C14.4481 11.1213 14.4202 11.2883 14.3645 11.4275C14.281 11.7337 14.1975 12.0677 14.1975 12.4017C14.1697 13.209 14.3924 14.0162 14.8099 14.7121C14.8099 14.7678 14.8377 14.7956 14.8377 14.8513C14.6151 14.7956 14.4202 14.8513 14.4481 15.2966C14.5037 16.243 14.6151 17.9688 15.7006 18.4699C15.7842 19.1936 15.8955 19.7781 16.0347 20.0286C16.2295 20.4183 16.5079 20.9194 16.8976 21.3926V22.7843H16.8419C16.8419 22.7843 15.9233 24.0091 15.645 24.2318C15.3666 24.4545 8.85314 26.5143 7.82324 27.906C7.43354 28.4349 7.12735 29.1308 6.849 29.9659C9.79955 34.1968 14.6986 36.9525 20.2378 36.9525C25.777 36.9525 30.6761 34.1968 33.6266 29.9659C33.3761 29.1308 33.0421 28.4071 32.6802 27.906Z" fill="#717892"/>
</svg>
